<svg height="67" viewBox="0 0 50 67" width="50" xmlns="http://www.w3.org/2000/svg"><path d="m25 20.8333333c5.7552083 0 10.4166667-4.6614583 10.4166667-10.4166666 0-5.75520837-4.6614584-10.4166667-10.4166667-10.4166667s-10.4166667 4.66145833-10.4166667 10.4166667c0 5.7552083 4.6614584 10.4166666 10.4166667 10.4166666zm-6.953125 32.3958334 3.3333333-4.1666667-8.0078125-6.6666667-5.97656247 7.4739584c-1.484375 1.8489583-1.5234375 4.4791666-.10416666 6.3802083l6.25000003 8.3333333c1.0286458 1.3671875 2.5911458 2.0833334 4.1666666 2.0833334 1.0807292 0 2.1875-.3385417 3.125-1.0416667 2.3046875-1.71875 2.7604167-4.9869792 1.0416667-7.2916667zm18.5807292-10.8333334-8.0078125 6.6666667 3.3333333 4.1666667-3.828125 5.1041666c-1.71875 2.3046875-1.2630208 5.5729167 1.0416667 7.2916667.9375.703125 2.03125 1.0416667 3.125 1.0416667 1.5885416 0 3.1510416-.7161459 4.1666666-2.0833334l6.25-8.3333333c1.4192709-1.9010417 1.3802084-4.53125-.1041666-6.3802083zm12.421875-23.515625c-1.6536459-2.3567708-4.8958334-2.9166666-7.2526042-1.2760416l-5.2864583 3.7109375c-6.8619792 4.8177083-16.171875 4.8177083-23.0208334 0l-5.2864583-3.6979167c-2.35677083-1.6536458-5.59895833-1.0807292-7.25260417 1.2630208-1.65364583 2.3567709-1.08072916 5.5989584 1.26302084 7.2526042l5.28645833 3.7109375c2.21354167 1.5494792 4.609375 2.7213542 7.0833333 3.6328125v4.0234375h20.8333334v-4.0104167c2.4739583-.9114583 4.8697916-2.0833333 7.0833333-3.6328125l5.2864583-3.7109375c2.3567709-1.6666666 2.9166667-4.9088541 1.2630209-7.265625z" fill="#597e9c"/></svg>