<svg height="44" viewBox="0 0 50 44" width="50" xmlns="http://www.w3.org/2000/svg"><path d="m25.0487329 18.8109162c-7.739766 0-18.71345025 11.9649123-18.71345025 19.5175438 0 3.4015595 2.61306043 5.4337232 6.99220275 5.4337232 4.7602339 0 7.9035088-2.4444444 11.7212475-2.4444444 3.8508772 0 7.002924 2.4444444 11.7212476 2.4444444 4.3791423 0 6.9922027-2.0321637 6.9922027-5.4337232 0-7.5526315-10.9736842-19.5175438-18.7134503-19.5175438zm-14.3547758-1.2290449c-1.01364521-3.3771929-4.13645223-5.5643274-6.97465885-4.8859649-2.83820663.6783626-4.31676414 3.965887-3.30311891 7.34308 1.01364522 3.3771929 4.13645224 5.5643274 6.97465887 4.8859649 2.83820659-.6783626 4.31676409-3.965887 3.30311889-7.34308zm8.25731-2.0253411c3.0155945-.7933723 4.5243664-4.8674464 3.3703703-9.09941519-1.1539961-4.23196881-4.534113-7.01851852-7.5497076-6.2251462-3.0155945.79337232-4.5243664 4.86744639-3.3703703 9.09941521 1.1539961 4.23196878 4.5350877 7.01949318 7.5497076 6.22514618zm27.4259259-2.8596491c-2.8382066-.6783626-5.960039 1.5087719-6.9746589 4.8859649-1.0136452 3.377193.4649123 6.6647174 3.3031189 7.3430799 2.8382066.6783626 5.960039-1.5087719 6.9746589-4.8859649 1.0136452-3.377193-.4649123-6.6647173-3.3031189-7.3430799zm-15.2309942 2.8596491c3.0155946.7933723 6.3957115-1.9931774 7.5497076-6.22514618 1.1539961-4.23196882-.3547758-8.30506823-3.3703703-9.09941521-3.0155946-.79434698-6.3957115 1.99317739-7.5497076 6.2251462-1.1539961 4.23196879.3547758 8.30604289 3.3703703 9.09941519z" fill="#597e9c"/></svg>