<svg height="35" viewBox="0 0 50 35" width="50" xmlns="http://www.w3.org/2000/svg"><path d="m49.524961 9.5850234c-13.8198128-12.78237129-35.3135725-12.77769111-49.12792512 0-.51950078.4804992-.52964118 1.2940718-.02730109 1.7925117l2.67082683 2.649766c.47893916.475819 1.24960999.4859594 1.74726989.0296412 11.38221529-10.42745712 28.96255849-10.42979721 40.34711389 0 .4976599.4563182 1.2683307.4453978 1.7472699-.0296412l2.6708268-2.649766c.5015601-.4984399.4914197-1.3120125-.0280811-1.7925117zm-24.5639626 15.375975c-2.7574103 0-4.9921996 2.2347894-4.9921996 4.9921997s2.2347893 4.9921997 4.9921996 4.9921997 4.9921997-2.2347894 4.9921997-4.9921997-2.2347894-4.9921997-4.9921997-4.9921997zm15.8088924-6.5202808c-8.9906396-7.950858-22.6372855-7.9422777-31.61778472 0-.53822152.4758191-.55538221 1.3018721-.04446177 1.8057723l2.68642749 2.651326c.4680187.4617785 1.2215288.4929797 1.7199688.0624025 6.5483619-5.6606864 16.3603744-5.6482059 22.8931357 0 .4984399.4305772 1.2519501.400156 1.7199688-.0624025l2.6864274-2.651326c.5117005-.5039002.4937598-1.3307333-.0436817-1.8057723z" fill="#597e9c"/></svg>