<svg height="39" viewBox="0 0 50 39" width="50" xmlns="http://www.w3.org/2000/svg"><path d="m36.1111111 13.8888889c0-7.67361112-8.0815972-13.8888889-18.0555555-13.8888889-9.97395838 0-18.0555556 6.21527778-18.0555556 13.8888889 0 2.9774305 1.22395833 5.7204861 3.29861111 7.9861111-1.16319444 2.6215278-3.08159722 4.7048611-3.10763889 4.7309028-.19097222.1996528-.24305555.4947916-.13020833.7552083s.35590278.4166667.63368055.4166667c3.17708334 0 5.80729167-1.0677084 7.69965278-2.1701389 2.79513888 1.3628472 6.10243058 2.1701389 9.66145838 2.1701389 9.9739583 0 18.0555555-6.2152778 18.0555555-13.8888889zm10.5902778 19.0972222c2.0746528-2.2569444 3.2986111-5.0086805 3.2986111-7.9861111 0-5.8072917-4.6440972-10.78125-11.2239583-12.8559028.078125.5729167.1128472 1.1545139.1128472 1.7447917 0 9.1927083-9.3489583 16.6666667-20.8333333 16.6666667-.9375 0-1.8489584-.0694445-2.7517362-.1649306 2.734375 4.9913194 9.1579862 8.4982639 16.640625 8.4982639 3.5590278 0 6.8663195-.7986111 9.6614584-2.1701389 1.8923611 1.1024306 4.5225694 2.1701389 7.6996528 2.1701389.2777777 0 .5295138-.1649306.6336805-.4166667.1128472-.2517361.0607639-.546875-.1302083-.7552083-.0260417-.0260417-1.9444445-2.1006945-3.1076389-4.7309028z" fill="#597e9c"/></svg>