<svg height="73" viewBox="0 0 50 73" width="50" xmlns="http://www.w3.org/2000/svg"><path d="m25 11.3636364c-7.5198864 0-13.6363636 6.1164772-13.6363636 13.6363636 0 1.2556818 1.0170454 2.2727273 2.2727272 2.2727273 1.2556819 0 2.2727273-1.0170455 2.2727273-2.2727273 0-5.0142045 4.0795455-9.0909091 9.0909091-9.0909091 1.2556818 0 2.2727273-1.0170454 2.2727273-2.2727273 0-1.2556818-1.0170455-2.2727272-2.2727273-2.2727272zm-11.3551136 53.859375c0 .4474431.1321022.8835227.3806818 1.2556818l3.4815341 5.2329545c.421875.6335228 1.1321022 1.0142046 1.8920454 1.0142046h11.2002841c.7613637 0 1.4715909-.3806818 1.8920455-1.0142046l3.4815341-5.2329545c.2471591-.3721591.3792613-.8096591.3806818-1.2556818l.0071023-6.1335228h-22.721591zm11.3551136-65.2230114c-14.5284091 0-25 11.7855114-25 25 0 6.3025568 2.33664773 12.0525568 6.1875 16.4460227 2.36363636 2.6974432 6.0710227 8.3522728 7.4460227 13.0909091v.0085227h6.8181818v-.0170454c-.0014204-.6775568-.1022727-1.3508523-.3053977-1.9985796-.7940341-2.5298295-3.2414773-9.200284-8.8309659-15.578125-2.91761363-3.328125-4.47727272-7.5497159-4.49005681-11.9517045-.02840909-10.4602273 8.47585231-18.18181818 18.17471591-18.18181818 10.0255682 0 18.1818182 8.15624998 18.1818182 18.18181818 0 4.3991477-1.5965909 8.6434659-4.4957387 11.9517045-5.5553977 6.3366478-8.0142045 12.9928978-8.8210227 15.5482955-.2082265.657007-.3145736 1.342036-.3153409 2.03125v.0142045h6.8181818v-.0071022c1.375-4.7400568 5.0823864-10.3948864 7.4460228-13.0909091 3.8494318-4.3948864 6.1860795-10.1448864 6.1860795-16.4474432 0-13.8068182-11.1931818-25-25-25z" fill="#597e9c"/></svg>