<svg height='100px' width='100px'  fill="#fcfcfc" xmlns="http://www.w3.org/2000/svg" viewBox="0 0 100 100" x="0px" y="0px"><defs><style>.cls-1{fill:none;}</style></defs><title>Asset 455</title><g data-name="Layer 2"><g data-name="Layer 1"><rect class="cls-1" width="100" height="100"></rect><path d="M74.86,97.88h-54A20.92,20.92,0,0,1,0,77V23A20.92,20.92,0,0,1,20.9,2.12h54a6.88,6.88,0,0,1,0,13.76h-54A7.14,7.14,0,0,0,13.76,23V77a7.14,7.14,0,0,0,7.14,7.14h54A7.15,7.15,0,0,0,82,77V55.31a6.88,6.88,0,0,1,13.76,0V77A20.92,20.92,0,0,1,74.86,97.88Z"></path><path d="M40.1,72.84a7.27,7.27,0,0,1-6.05-3.17L23.22,53.9a6.88,6.88,0,0,1,11.34-7.8l7,10.16L88.91,19.57a6.88,6.88,0,1,1,8.42,10.88L44.72,71.2A7.35,7.35,0,0,1,40.1,72.84Z"></path></g></g></svg>